<svg xmlns="http://www.w3.org/2000/svg" viewBox="0 0 1800 300"><title>Callysto Notebook Top Banner</title><g style="isolation:isolate"><g id="Layer_1" data-name="Layer 1"><rect x="0.5" width="1800" height="300" transform="translate(1800.5 300) rotate(180)" style="fill:#002432"/><path d="M18.19,23.38a2.43,2.43,0,1,0,2.43,2.43,2.43,2.43,0,0,0-2.43-2.43" transform="translate(-0.5)" style="fill:#fff"/><path d="M410.31,72.58A2.43,2.43,0,1,0,412.74,75a2.43,2.43,0,0,0-2.43-2.43" transform="translate(-0.5)" style="fill:#fff"/><path d="M408,257.36a2.43,2.43,0,1,0,2.43,2.43,2.43,2.43,0,0,0-2.43-2.43" transform="translate(-0.5)" style="fill:#fff"/><path d="M269.19,132.11a2.43,2.43,0,1,0,2.43,2.43,2.43,2.43,0,0,0-2.43-2.43" transform="translate(-0.5)" style="fill:#fff"/><path d="M247.52,213.7a1.15,1.15,0,1,1-1.15,1.15,1.15,1.15,0,0,1,1.15-1.15" transform="translate(-0.5)" style="fill:#fff"/><path d="M190.15,22.23A1.15,1.15,0,1,1,189,23.38a1.15,1.15,0,0,1,1.15-1.15" transform="translate(-0.5)" style="fill:#fff"/><path d="M472.4,6a1.15,1.15,0,1,1-1.15,1.15A1.15,1.15,0,0,1,472.4,6" transform="translate(-0.5)" style="fill:#fff"/><path d="M187.86,134.54a1.15,1.15,0,1,1-1.15,1.15,1.15,1.15,0,0,1,1.15-1.15" transform="translate(-0.5)" style="fill:#fff"/><path d="M413.88,156.33a1.15,1.15,0,1,1-1.15,1.15,1.15,1.15,0,0,1,1.15-1.15" transform="translate(-0.5)" style="fill:#fff"/><path d="M102.95,51.92a1.15,1.15,0,1,1-1.15,1.15,1.15,1.15,0,0,1,1.15-1.15" transform="translate(-0.5)" style="fill:#9e78a3"/><path d="M514.85,183.87a1.15,1.15,0,1,1-1.15,1.15,1.15,1.15,0,0,1,1.15-1.15" transform="translate(-0.5)" style="fill:#9e78a3"/><path d="M51.32,233.21a1.15,1.15,0,1,1-1.15,1.15,1.15,1.15,0,0,1,1.15-1.15" transform="translate(-0.5)" style="fill:#9e78a3"/><path d="M318.65,96.67a1.15,1.15,0,1,1-1.15,1.15,1.15,1.15,0,0,1,1.15-1.15" transform="translate(-0.5)" style="fill:#9e78a3"/><path d="M876.53,259.57a2.43,2.43,0,1,0-2.43-2.43,2.43,2.43,0,0,0,2.43,2.43" transform="translate(-0.5)" style="fill:#fff"/><path d="M995.72,56.66a2.43,2.43,0,1,0-2.43-2.43,2.43,2.43,0,0,0,2.43,2.43" transform="translate(-0.5)" style="fill:#fff"/><path d="M667.71,35.87a2.43,2.43,0,1,0-2.43-2.43,2.43,2.43,0,0,0,2.43,2.43" transform="translate(-0.5)" style="fill:#fff"/><path d="M1044.13,232.85a1.15,1.15,0,1,1,1.15-1.15,1.15,1.15,0,0,1-1.15,1.15" transform="translate(-0.5)" style="fill:#fff"/><path d="M579.23,168.83a1.15,1.15,0,1,1,1.15-1.15,1.15,1.15,0,0,1-1.15,1.15" transform="translate(-0.5)" style="fill:#fff"/><path d="M874.1,16.23a1.15,1.15,0,1,1,1.15-1.15,1.15,1.15,0,0,1-1.15,1.15" transform="translate(-0.5)" style="fill:#fff"/><path d="M769.69,142.44a1.15,1.15,0,1,1,1.15-1.15,1.15,1.15,0,0,1-1.15,1.15" transform="translate(-0.5)" style="fill:#fff"/><path d="M920,83.92a1.15,1.15,0,1,1,1.15-1.15A1.15,1.15,0,0,1,920,83.92" transform="translate(-0.5)" style="fill:#9e78a3"/><path d="M715.77,235.16a1.15,1.15,0,1,1,1.15-1.15,1.15,1.15,0,0,1-1.15,1.15" transform="translate(-0.5)" style="fill:#9e78a3"/><path d="M556.29,17.38a1.15,1.15,0,1,1,1.15-1.15,1.15,1.15,0,0,1-1.15,1.15" transform="translate(-0.5)" style="fill:#9e78a3"/><path d="M1133.55,18.34a2.43,2.43,0,1,0,2.43,2.43,2.43,2.43,0,0,0-2.43-2.43" transform="translate(-0.5)" style="fill:#fff"/><path d="M1283.71,229.32a2.43,2.43,0,1,0,2.43,2.43,2.43,2.43,0,0,0-2.43-2.43" transform="translate(-0.5)" style="fill:#fff"/><path d="M1525.67,67.54A2.43,2.43,0,1,0,1528.1,70a2.43,2.43,0,0,0-2.43-2.43" transform="translate(-0.5)" style="fill:#fff"/><path d="M1384.55,127.07a2.43,2.43,0,1,0,2.43,2.43,2.43,2.43,0,0,0-2.43-2.43" transform="translate(-0.5)" style="fill:#fff"/><path d="M1362.88,208.67a1.15,1.15,0,1,1-1.15,1.15,1.15,1.15,0,0,1,1.15-1.15" transform="translate(-0.5)" style="fill:#fff"/><path d="M1305.51,17.19a1.15,1.15,0,1,1-1.15,1.15,1.15,1.15,0,0,1,1.15-1.15" transform="translate(-0.5)" style="fill:#fff"/><path d="M1303.22,129.5a1.15,1.15,0,1,1-1.15,1.15,1.15,1.15,0,0,1,1.15-1.15" transform="translate(-0.5)" style="fill:#fff"/><path d="M1223.58,291.29a1.15,1.15,0,1,1-1.15,1.15,1.15,1.15,0,0,1,1.15-1.15" transform="translate(-0.5)" style="fill:#fff"/><path d="M1529.24,151.29a1.15,1.15,0,1,1-1.15,1.15,1.15,1.15,0,0,1,1.15-1.15" transform="translate(-0.5)" style="fill:#fff"/><path d="M1218.31,46.89a1.15,1.15,0,1,1-1.15,1.15,1.15,1.15,0,0,1,1.15-1.15" transform="translate(-0.5)" style="fill:#9e78a3"/><path d="M1630.21,178.83a1.15,1.15,0,1,1-1.15,1.15,1.15,1.15,0,0,1,1.15-1.15" transform="translate(-0.5)" style="fill:#9e78a3"/><path d="M1166.68,228.17a1.15,1.15,0,1,1-1.15,1.15,1.15,1.15,0,0,1,1.15-1.15" transform="translate(-0.5)" style="fill:#9e78a3"/><path d="M1434,91.63a1.15,1.15,0,1,1-1.15,1.15,1.15,1.15,0,0,1,1.15-1.15" transform="translate(-0.5)" style="fill:#9e78a3"/><path d="M1783.07,30.83a2.43,2.43,0,1,0-2.43-2.43,2.43,2.43,0,0,0,2.43,2.43" transform="translate(-0.5)" style="fill:#fff"/><path d="M1694.59,163.79a1.15,1.15,0,1,1,1.15-1.15,1.15,1.15,0,0,1-1.15,1.15" transform="translate(-0.5)" style="fill:#fff"/><path d="M1671.65,12.34a1.15,1.15,0,1,1,1.15-1.15,1.15,1.15,0,0,1-1.15,1.15" transform="translate(-0.5)" style="fill:#9e78a3"/></g><g id="callysto-logo" data-name="Layer 2"><path d="M1330.43,130.22H1317.2v-18q0-3.83-1.15-4.89t-4.8-1.05h-10.54q-3.84,0-4.89,1.05t-1.05,4.89v84.93c0,2.43.35,4,1.05,4.79s2.33,1.16,4.89,1.16h10.54q3.64,0,4.8-1.16t1.15-4.79v-18h13.23v20.13q0,15.14-15.14,15.14h-18.6q-15.14,0-15.14-15.14V110.09q0-15.13,15.14-15.14h18.6q15.14,0,15.14,15.14Z" transform="translate(-0.5)" style="fill:#fff"/><path d="M1381.39,119.78h13.23v94.41h-13.23v-6.33q-2.11,6.33-10.54,6.33h-7.67Q1348,214.19,1348,199V136.36q0-15.14,15.14-15.15h7.67q8.43,0,10.54,6.33Zm-14.19,83.1h7.67c2.3,0,4-.51,5-1.53s1.53-2.81,1.53-5.37V139.42c0-2.55-.51-4.34-1.53-5.37s-2.68-1.53-5-1.53h-7.67q-3.84,0-4.89,1.15t-1.05,4.8v58.47q0,3.83,1.05,4.89T1367.2,202.88Z" transform="translate(-0.5)" style="fill:#fff"/><path d="M1425.63,214.19H1412.4V85.94h13.23Z" transform="translate(-0.5)" style="fill:#fff"/><path d="M1456.61,214.19h-13.23V85.94h13.23Z" transform="translate(-0.5)" style="fill:#fff"/><path d="M1570,197.13V179.49c0-2.42-.38-4-1.15-4.8s-2.36-1.15-4.79-1.15h-9.39q-15.14,0-15.14-15.14v-22q0-15.14,15.14-15.15h13q15.14,0,15.14,15.15v9.39h-13v-7.48q0-3.83-1.05-4.89t-4.89-1.05h-5.37q-3.84,0-4.89,1.05t-1.05,4.89v18.22q0,3.65,1.05,4.79t4.89,1.16h9.39q15.14,0,15.14,15.14V199q0,15.14-15.14,15.14H1555q-15.15,0-15.14-15.14v-9.39h13v7.48c0,2.43.35,4,1.05,4.79s2.33,1.16,4.89,1.16H1564q3.64,0,4.79-1.16T1570,197.13Z" transform="translate(-0.5)" style="fill:#fff"/><path d="M1630.94,132.52h-13.23V196q0,3.65,1.15,4.79t4.79,1.15h7.28v12.27h-11.31q-15.14,0-15.14-15.14V132.52H1596V121.21h8.43V106.06h13.23v15.15h13.23Z" transform="translate(-0.5)" style="fill:#fff"/><path d="M1660.14,121.21h19.55q15.14,0,15.14,15.15V199q0,15.14-15.14,15.14h-19.55Q1645,214.19,1645,199V136.36Q1645,121.22,1660.14,121.21Zm21.66,75.73V138.47q0-3.65-1.15-4.8t-4.79-1.15H1664q-3.64,0-4.79,1.15t-1.15,4.8v58.47q0,3.83,1.15,4.89t4.79,1.05h11.89q3.64,0,4.79-1.05T1681.8,196.94Z" transform="translate(-0.5)" style="fill:#fff"/><path d="M1490.25,241.09H1479.9V229.78h6.33q8.24,0,9.58-5.94l2.3-9.78h-4.69a4.76,4.76,0,0,1-4.68-3.87l-17.09-89.11h13.23l14.25,81.21a.69.69,0,0,0,1.36,0l13.34-81.2h13.23L1508.46,226Q1505.59,241.09,1490.25,241.09Z" transform="translate(-0.5)" style="fill:#fff"/><path d="M1122.83,101.15c.14-1.92.37-3.82.63-5.72C1123.19,97.33,1123,99.23,1122.83,101.15Z" transform="translate(-0.5)" style="fill:#747bb7"/><path d="M1129,99.36c1.33-.37,2.66-.26,4-1h0C1131.66,99.1,1130.33,99,1129,99.36Z" transform="translate(-0.5)" style="fill:#747bb7"/><path d="M1195.57,173.73l.2-.52Z" transform="translate(-0.5)" style="fill:#747bb7"/><path d="M1188.9,185.81c.38-.52.77-1,1.13-1.57C1189.67,184.77,1189.27,185.29,1188.9,185.81Z" transform="translate(-0.5)" style="fill:#747bb7"/><path d="M1191.37,182.1c.16-.27.34-.52.5-.79C1191.71,181.58,1191.53,181.84,1191.37,182.1Z" transform="translate(-0.5)" style="fill:#747bb7"/><path d="M1185.75,189.8q1.16-1.33,2.24-2.73Q1186.91,188.47,1185.75,189.8Z" transform="translate(-0.5)" style="fill:#747bb7"/><path d="M1133.49,98.38h0c1.6,0,3.21-.72,4.81-.72h0C1136.69,97.67,1135.09,98.38,1133.49,98.38Z" transform="translate(-0.5)" style="fill:#747bb7"/><path d="M1122.83,101.56c1.65-.67,3.32-1,5-1.74h0C1126.15,100.54,1124.48,100.89,1122.83,101.56Z" transform="translate(-0.5)" style="fill:#747bb7"/><polygon points="1193.01 178.3 1193.01 178.31 1193.01 178.3 1193.01 178.3" style="fill:#747bb7"/><polygon points="1193.29 177.74 1193.29 177.75 1193.29 177.75 1193.29 177.74" style="fill:#747bb7"/><path d="M1138.77,97.3c1.64-.15,3.28-.23,4.92-.23-1.64,0-3.28.09-4.92.23Z" transform="translate(-0.5)" style="fill:#747bb7"/><path d="M1199.11,145.64h0c0,.38.11.75.16,1.13h0C1199.23,146.39,1199.16,146,1199.11,145.64Z" transform="translate(-0.5)" style="fill:#747bb7"/><path d="M1199.58,151.06h0c0,.49,0,1,0,1.45h0C1199.59,152,1199.6,151.54,1199.58,151.06Z" transform="translate(-0.5)" style="fill:#747bb7"/><path d="M1191.87,181.31q.87-1.48,1.64-3Q1192.73,179.83,1191.87,181.31Z" transform="translate(-0.5)" style="fill:#fff"/><path d="M1199.59,152.51q0,1.47-.05,2.94c0,.6-.05,1.2-.1,1.79-.08,1-.19,1.94-.31,2.91s-.29,2-.47,3c-.13.71-.26,1.42-.42,2.12s-.39,1.61-.61,2.41c-.13.49-.28,1-.43,1.46-.42,1.38-.9,2.75-1.42,4.09A55.91,55.91,0,0,0,1199.59,152.51Z" transform="translate(-0.5)" style="fill:#fff"/><path d="M1188,187.08c.32-.41.61-.85.91-1.27C1188.59,186.23,1188.3,186.66,1188,187.08Z" transform="translate(-0.5)" style="fill:#fff"/><path d="M1193.79,177.74c.65-1.31,1.23-2.65,1.78-4C1195,175.09,1194.44,176.43,1193.79,177.74Z" transform="translate(-0.5)" style="fill:#fff"/><path d="M1190,184.24c.47-.7.91-1.42,1.35-2.14C1190.93,182.82,1190.5,183.54,1190,184.24Z" transform="translate(-0.5)" style="fill:#fff"/><path d="M1193.51,178.3l.27-.55Z" transform="translate(-0.5)" style="fill:#fff"/><path d="M1138.77,97.3l-.47,0Z" transform="translate(-0.5)" style="fill:#fff"/><path d="M1133.49,98l-.49.09Z" transform="translate(-0.5)" style="fill:#fff"/><path d="M1128.13,99.31c.29-.08.58-.13.87-.21-.39.11-.78.19-1.17.3Z" transform="translate(-0.5)" style="fill:#fff"/><path d="M1198.27,140.86c.1.43.18.86.27,1.29q.35,1.74.58,3.49a55.38,55.38,0,0,0-2-9.23C1197.57,137.88,1197.94,139.37,1198.27,140.86Z" transform="translate(-0.5)" style="fill:#fff"/><polygon points="1122.96 95.42 1122.96 95.43 1122.96 95.42 1122.96 95.42" style="fill:#fff"/><path d="M1199.58,151.06q-.07-2.14-.31-4.29C1199.43,148.2,1199.53,149.63,1199.58,151.06Z" transform="translate(-0.5)" style="fill:#fff"/><path d="M1199.3,127.74a61.22,61.22,0,0,0-55.63-35.81,60.23,60.23,0,0,0-20.24,3.49h0c-.72,1.9-.48,4-.62,5.93,1.65-.67,3.33-.82,5-1.54h0a5,5,0,0,0,1.17-.38c1.33-.37,2.66-.34,4-1.05h.49c1.6,0,3.21-.72,4.81-.72h0c.16,0,.2-.37.2-.38h0c1.44-.15,3.42-.23,5.06-.23a56,56,0,0,1,51,32.8c.26.56.52,1.13.75,1.7l-27.08,12.31a2.57,2.57,0,0,0,2.14,4.67l26.56-12.14c1,3.05,1.12,6.14,1.84,9.23h0v1.13h0c0,1.43.67,3.28.72,4.72h0c0,.72,0,.72,0,1.44h0a54.68,54.68,0,0,1-3.82,20.5c-.07.17-.15.25-.22.42-.54,1.36-1.79,2.6-1.79,3.91h0c-.72.18,0,.28-.06.28h-.09l0,.14c-.52,1-1.09,2.09-1.66,3.07-.16.27-.34.56-.51.82-.44.72-.88,1.45-1.35,2.15-.36.53-.75,1.06-1.13,1.58s-.6.86-.92,1.27q-1.07,1.39-2.24,2.73c1.86.5,3.74.92,5.64,1.29A61.09,61.09,0,0,0,1199.3,127.74Z" transform="translate(-0.5)" style="fill:#fff"/><path d="M1197.19,169.12a56.28,56.28,0,0,1-3.4,8.63A56.15,56.15,0,0,0,1197.19,169.12Z" transform="translate(-0.5)" style="fill:none"/><path d="M1185.75,189.8a55.79,55.79,0,0,0,7.77-11.5A56.1,56.1,0,0,1,1185.75,189.8Z" transform="translate(-0.5)" style="fill:none"/><path d="M1191.38,191.09a61,61,0,1,1-72.9-93.68c1.64-.75,3.31-1.4,5-2a85.27,85.27,0,0,1,11.71-32.72,90.69,90.69,0,1,0,90.89,128.12A85.45,85.45,0,0,1,1191.38,191.09Z" transform="translate(-0.5)" style="fill:#5f68af"/><path d="M1089,126.05a61,61,0,0,0,102.43,65c-1.89-.37-3.77-.79-5.64-1.29a55.89,55.89,0,0,1-82.84,1.42c-.13-.14-.25-.3-.38-.44l22.79-10.35a2.57,2.57,0,1,0-2.12-4.67l-24.05,10.93a55.31,55.31,0,0,1-10.94-27.23,2.32,2.32,0,0,0,.26-.06l46.74-21.23a2.57,2.57,0,1,0-2.12-4.67L1087.84,154a55.87,55.87,0,0,1,32.76-52c.74-.34,1.48-.64,2.23-.94.14-1.92.37-3.82.63-5.72-1.68.59-3.34,1.24-5,2A61.15,61.15,0,0,0,1089,126.05Z" transform="translate(-0.5)" style="fill:#fff"/><path d="M1122.83,101.15c-.74.3-1.49.6-2.23.94a55.87,55.87,0,0,0-32.76,52l39.65-18A85.08,85.08,0,0,1,1122.83,101.15Z" transform="translate(-0.5)" style="fill:#f16722"/><path d="M1159,188.46a10.33,10.33,0,0,1-7.72-17.23,85.18,85.18,0,0,1-21.9-30.4l-40.87,18.57a2.32,2.32,0,0,1-.26.06,55.31,55.31,0,0,0,10.94,27.23l24.05-10.93a2.57,2.57,0,1,1,2.12,4.67l-22.79,10.35c.13.14.25.3.38.44a55.81,55.81,0,0,0,82.84-1.42,85.32,85.32,0,0,1-17.66-6.89A10.33,10.33,0,0,1,1159,188.46Z" transform="translate(-0.5)" style="fill:#f16722"/><path d="M1159,188.46a10.33,10.33,0,0,0,9.13-5.55,84.63,84.63,0,0,1-16.86-11.68,10.33,10.33,0,0,0,7.72,17.23Z" transform="translate(-0.5)" style="fill:#f06923"/><path d="M1159,188.46a10.33,10.33,0,0,0,9.13-5.55,84.63,84.63,0,0,1-16.86-11.68,10.33,10.33,0,0,0,7.72,17.23Z" transform="translate(-0.5)" style="fill:#f05a2d;opacity:0.5;mix-blend-mode:multiply"/><path d="M1136.48,134.77a2.56,2.56,0,0,0-3.4-1.27l-5.59,2.54c.57,1.61,1.17,3.21,1.84,4.8l5.87-2.67A2.57,2.57,0,0,0,1136.48,134.77Z" transform="translate(-0.5)" style="fill:#fff;opacity:0.15"/><path d="M1197.1,136.4l-26.73,12.14a2.54,2.54,0,0,1-1.06.23,2.57,2.57,0,0,1-1.06-4.9l27.09-12.31c-.24-.57-.46-1.13-.72-1.7a55.82,55.82,0,0,0-71.8-28.72,85.08,85.08,0,0,0,4.66,34.89l5.59-2.54a2.57,2.57,0,1,1,2.12,4.67l-5.87,2.67a85.18,85.18,0,0,0,21.9,30.4,10.32,10.32,0,0,1,16.86,11.68,85.32,85.32,0,0,0,17.66,6.89A55.92,55.92,0,0,0,1197.1,136.4Z" transform="translate(-0.5)" style="fill:#f37d37"/><path d="M1169.32,178.09a10.33,10.33,0,0,0-18.1-6.86,84.63,84.63,0,0,0,16.86,11.68A10.25,10.25,0,0,0,1169.32,178.09Z" transform="translate(-0.5)" style="fill:#f05a2d"/><path d="M1196.21,85.85a23.38,23.38,0,0,1,.84-6.15,90.26,90.26,0,0,0-53.4-17.4c-2.86,0-5.69.14-8.48.4a85.27,85.27,0,0,0-11.71,32.72,60.37,60.37,0,0,1,20.23-3.49,61,61,0,0,1,47.69,99.16c-1.89-.37,17.43,4.15,34.69-.27a90.7,90.7,0,0,0-2.93-81.51,23.58,23.58,0,0,1-26.93-23.46Z" transform="translate(-0.5)" style="fill:#777ebc"/><path d="M1247.84,92.92A28.75,28.75,0,0,0,1219.91,57l-.29,0A28.9,28.9,0,0,0,1194.69,72a95.22,95.22,0,0,0-51-14.78c-2.93,0-5.94.14-9,.42a95.89,95.89,0,1,0,95.83,55A28.77,28.77,0,0,0,1247.84,92.92ZM1234.34,153a90.69,90.69,0,1,1-99.17-90.29c2.79-.26,5.62-.4,8.48-.4a90.23,90.23,0,0,1,49,14.37,28.49,28.49,0,0,0-1.54,9.18,28.75,28.75,0,0,0,34.52,28.25A90.32,90.32,0,0,1,1234.34,153Z" transform="translate(-0.5)" style="fill:#fff"/><path d="M1217.48,62.3h0l.18,0Z" transform="translate(-0.5)" style="fill:#6f4a9d"/><path d="M1217.94,86.54a21,21,0,0,1-.47-24.22,23.89,23.89,0,0,0-20.42,17.39,23.38,23.38,0,0,0-.84,6.15,23.65,23.65,0,0,0,45.95,7.91A21,21,0,0,1,1217.94,86.54Z" transform="translate(-0.5)" style="fill:#6f4a9d"/><path d="M1242.16,93.77l.07,0c.24-.68.46-1.37.63-2.08C1242.68,92.39,1242.4,93.07,1242.16,93.77Z" transform="translate(-0.5)" style="fill:#6f4a9d"/><path d="M1219.91,62.15q-1.23,0-2.43.15a21,21,0,0,0,24.74,31.45c.24-.68.46-1.37.63-2.08a23.61,23.61,0,0,0-22.95-29.51Z" transform="translate(-0.5)" style="fill:#c7a8cf"/><a xmlns:xlink="http://www.w3.org/1999/xlink" xlink:href="https://www.callysto.ca/"><rect x="1047.201171875" y="56.99985885620117" height="192.00608825683594" width="647.12890625" onmouseover="this.parentNode.parentNode.style.opacity=0.67;" onmouseout="this.parentNode.parentNode.style.opacity=1;" style="opacity: 0;"/></a></g></g></svg>